PathFileType	4	(X/Y/Z)	path1_20_0-911.trc
DataRate	CameraRate	NumFrames	NumMarkers	Units	OrigDataRate	OrigDataStartFrame	OrigNumFrames
30	30	6	22	m	30	797	911
Frame#	Time	Hip			RHip			RKnee			RAnkle			RBigToe			RSmallToe			RHeel			LHip			LKnee			LAnkle			LBigToe			LSmallToe			LHeel			Neck			Head			Nose			RShoulder			RElbow			RWrist			LShoulder			LElbow			LWrist		
		X1	Y1	Z1	X2	Y2	Z2	X3	Y3	Z3	X4	Y4	Z4	X5	Y5	Z5	X6	Y6	Z6	X7	Y7	Z7	X8	Y8	Z8	X9	Y9	Z9	X10	Y10	Z10	X11	Y11	Z11	X12	Y12	Z12	X13	Y13	Z13	X14	Y14	Z14	X15	Y15	Z15	X16	Y16	Z16	X17	Y17	Z17	X18	Y18	Z18	X19	Y19	Z19	X20	Y20	Z20	X21	Y21	Z21	X22	Y22	Z22
798	26.6	-2.434508075315673	0.798382875438613	0.7741786352980714	-2.4393949717773857	0.75137118329178	0.690143030324099	-2.3851326805250546	0.4271876591850754	0.6808476178571393	-2.334260096450472	0.0705543750268363	0.6968313272359011	-2.5101520234114885	-0.022816218758134218	0.6927546733526075	-2.480989568874185	-0.036628218859498275	0.6442550331391872	-2.2894704780030026	0.0028860323536288204	0.708777341844011	-2.423225936319677	0.7516016714333087	0.8567107220423459	-2.4254445745926536	0.4055361734748137	0.8555326047713098	-2.335374160593141	0.05609084310708861	0.8310312667571946	-2.49797910034455	-0.024758550724684542	0.8477787325624548	-2.550917544693237	-0.051744995312888516	0.8629151782692379	-2.2937535730185923	-0.011077872878486463	0.8233573874452109	-2.4408045885298404	1.4321829763809177	0.7873910576116885	-2.5112953276885466	1.634145770487134	0.808879640856733	-2.5698978103415238	1.4913815919197793	0.8445939259618637	-2.411470942095895	1.3278519316834052	0.6097990231605326	-2.36434183795252	1.053110344503062	0.5541418009153389	-2.3973443855353738	0.8084964701679296	0.5318961807315608	-2.4201418051955312	1.3070880112181904	0.9708459246678044	-2.431790246938647	1.0414235660490616	1.003244421314145	-2.4778615542822524	0.8029518135887982	1.0147099017241104
799	26.633333333333333	-2.434621652636584	0.7981544286127258	0.7737279514318445	-2.4392174168037895	0.7511683512970424	0.6900858256662765	-2.384933728223774	0.4273651681365008	0.6805620413916323	-2.334298053852188	0.07054638680120108	0.6967773395945311	-2.5099511951419267	-0.022315093332306978	0.6917825966638401	-2.4807725223034875	-0.03611092345144788	0.6436865114680936	-2.2894989651862607	0.002816042677526418	0.7088461186734922	-2.423570079704023	0.751278592857028	0.8568639283765179	-2.425251321952727	0.405183879093419	0.8550461814654458	-2.3359761423108716	0.05555783804586452	0.8312298025263403	-2.498199560477319	-0.02564666018789714	0.8482441088085556	-2.550979027758097	-0.05216666083019258	0.8634084463515648	-2.294659395722423	-0.011464875434802164	0.8235252797347195	-2.4408545454058372	1.4321700294093365	0.7877375834239368	-2.526207846696794	1.6411965497663137	0.7999060619748608	-2.570169425355607	1.4916262856776092	0.8443137455711298	-2.411587458764104	1.327933201636013	0.6101696241285253	-2.3646125789554593	1.053098485237129	0.5542398918709553	-2.397488139756743	0.8085987142289495	0.5318089672274483	-2.4205502845322995	1.307063403424223	0.9713959498721726	-2.4318640378104126	1.0414068245584729	1.0032916598541581	-2.4782341449998366	0.802577779030831	1.0145716349074567
800	26.666666666666668	-2.4348296710586665	0.7979613975111375	0.7733383407255578	-2.439145176447604	0.7509349609177965	0.6901428881143181	-2.3848058636998513	0.42749804781854256	0.6803486393266073	-2.334181242703969	0.07065263642840394	0.6967380670869611	-2.5097487039524826	-0.021836818193861497	0.6911407749405347	-2.480503027520995	-0.03574698644984285	0.6432112568192776	-2.289492246329855	0.0028686069621945936	0.7090171269515648	-2.423944902749503	0.7510201685158654	0.8569583457933433	-2.4252725648706863	0.4050153169877009	0.8545681998887223	-2.336488859824879	0.05529781188258105	0.831440249239703	-2.4983058905826088	-0.026129347716722696	0.848585238441689	-2.5514009876038792	-0.05244096341247863	0.863605333066441	-2.295694528322399	-0.011764611075640922	0.8239370935062462	-2.4408810795952434	1.4321981725588948	0.7880263559973139	-2.5439260824749197	1.6496411426638427	0.7893598193590263	-2.570458337131619	1.4916326770651762	0.8439558511409787	-2.4115953725835415	1.328113202182568	0.6104830472047933	-2.36496505699416	1.053029069868858	0.5543604972383608	-2.3975078282736506	0.8087035762698594	0.5317813753143608	-2.4208103248420056	1.307068428303031	0.9718300618153033	-2.43185503614168	1.0413582247379818	1.0033140101602134	-2.478519945657272	0.8022821183340192	1.0143905372604485
801	26.7	-2.4350950830151157	0.7978570646067168	0.7730720687773137	-2.4391800628788816	0.7507284639141388	0.6903376333512209	-2.384788939645017	0.4275321460537423	0.6802557962371109	-2.333928256418717	0.07081942136775608	0.6967075591337325	-2.5094594663523617	-0.021342332733223196	0.6907502588784018	-2.480224699743767	-0.03559972401308182	0.6428490369172081	-2.2894329607721904	0.002991241561140304	0.7092696558680192	-2.4243470508145544	0.7508473084304549	0.8569522161420722	-2.42564408982978	0.40505823192362833	0.8542146208350831	-2.3368504607100347	0.055303898188768484	0.8316064952007326	-2.4983642282492053	-0.026173160061462877	0.8488719545443332	-2.552386992555994	-0.05257841185860378	0.863492535460555	-2.29694508575052	-0.012055818428123683	0.8246742131547261	-2.440922650370146	1.4322523059351788	0.788239958604207	-2.5623907520929357	1.6584408155205697	0.7785174025396402	-2.5707381599048222	1.4914095890440484	0.8435038024975787	-2.4115311477361634	1.3283457997682981	0.6106925831583279	-2.3653777598249213	1.0529345213505363	0.5544922097325232	-2.3974556585017472	0.8087204252103071	0.5318140005657386	-2.4208839221983087	1.3071487168533167	0.9720345157853176	-2.4318014892833157	1.0413544028079733	1.0032942346561424	-2.47867115214564	0.8021165436898702	1.0142009733781834
802	26.73333333333333	-2.4353453062106594	0.7978480151134689	0.7729739781228333	-2.4392570447346142	0.7505402528577789	0.6906573030099982	-2.384863943495021	0.427408610760153	0.6802565271896983	-2.333603740886947	0.07093528324907983	0.6967008503391946	-2.509093906005044	-0.0209175869570889	0.6904915472552605	-2.4799911421724143	-0.035769221196939815	0.642657657666699	-2.2893357174439752	0.0031050778616732244	0.7095804009547448	-2.424700965044619	0.7507320811988688	0.8568604669222216	-2.426277332089443	0.4052552428520456	0.8540536681514153	-2.337022270660204	0.05553755020426178	0.8316810282532123	-2.4984392887842306	-0.025831039187510924	0.8491323994260912	-2.5538718923079555	-0.052591570749661656	0.8631720107536233	-2.2984656228140685	-0.012431060195452488	0.8257654663907893	-2.441026819816388	1.4323141180126302	0.7884015315432181	-2.5798529449102836	1.6667324273558142	0.7683901078849082	-2.570990351450857	1.4910474193282959	0.8430963771049659	-2.411451683089434	1.3285777514996913	0.6107886646566556	-2.365810154469369	1.0528611517822646	0.5546249824374413	-2.397400919277127	0.8085906584449248	0.5318946006167019	-2.420850017251472	1.307321319756732	0.9719468001521293	-2.43172726995335	1.0414668633338167	1.0032758320227335	-2.478683132064557	0.802086572747844	1.0140646979663916
803	26.766666666666666	-2.435492417348045	0.797896875272747	0.7730671281107798	-2.43932041600229	0.7503136694577964	0.6910231673354839	-2.3849797355864935	0.4271113141214604	0.680282047863572	-2.3332583216058485	0.07088854624247413	0.6967695309453913	-2.508749882212633	-0.020717701197500226	0.6903091319908715	-2.4798359780594432	-0.036316998401613065	0.642667646671192	-2.2892582862919437	0.003106276707484716	0.7099342267794152	-2.424872274957502	0.7506278386240425	0.856740409803909	-2.426858951924419	0.40550397100676394	0.8541079366072754	-2.336980942592228	0.055956989395028814	0.8316309684783915	-2.498528708346118	-0.025169103767582413	0.8493009952263552	-2.555341345739792	-0.05244309274767604	0.8628513135400028	-2.3000983021645394	-0.012881012897552316	0.8270912503585874	-2.441223736694155	1.432376703692873	0.78854713246234	-2.5942370914472104	1.6735420519062023	0.7601170045707283	-2.571236743555676	1.4906715273372007	0.8429514017750902	-2.4114123891028205	1.3287640965968894	0.6108068670329656	-2.3662406660805537	1.0528449836549099	0.5547755345159102	-2.3974205679459266	0.8083511736135532	0.5320165046428019	-2.4208259559332266	1.3075735324212676	0.9715640742776278	-2.431642076492225	1.0417051243328987	1.0033312268569994	-2.4785997561529514	0.8021461785583653	1.014054041429288
